<?xml version="1.0" encoding="iso-8859-1"?>
<!-- Generator: Adobe Illustrator 19.0.0, SVG Export Plug-In . SVG Version: 6.00 Build 0)  -->
<svg version="1.1" id="Capa_1" xmlns="http://www.w3.org/2000/svg" xmlns:xlink="http://www.w3.org/1999/xlink" x="0px" y="0px"
	 viewBox="0 0 512 512" style="enable-background:new 0 0 512 512;" xml:space="preserve">
<g>
	<g>
		<path d="M208,16C93.312,16,0,94.944,0,192c0,39.84,15.68,77.952,44.48,108.896L4.704,340.704
			c-4.576,4.576-5.952,11.424-3.488,17.408S9.536,368,16,368h192c114.688,0,208-78.944,208-176S322.688,16,208,16z M208,336H54.624
			l23.872-23.904c3.104-3.104,4.832-7.328,4.704-11.712c-0.128-4.384-2.048-8.544-5.312-11.488C48.32,262.272,32,227.872,32,192
			c0-79.392,78.976-144,176-144s176,64.608,176,144S305.024,336,208,336z"/>
	</g>
</g>
<g>
	<g>
		<path d="M467.552,428.864C496.32,397.952,512,359.84,512,320c0-37.12-13.632-72.704-39.36-102.88
			c-5.728-6.72-15.872-7.456-22.56-1.792c-6.72,5.728-7.52,15.84-1.792,22.56C469.024,262.208,480,290.592,480,320
			c0,35.872-16.32,70.272-45.888,96.896c-3.296,2.944-5.184,7.072-5.312,11.456c-0.128,4.384,1.6,8.64,4.672,11.744L457.376,464H304
			c-64.992,0-124.512-29.216-155.232-76.256c-4.896-7.424-14.848-9.44-22.144-4.64c-7.392,4.832-9.472,14.752-4.672,22.144
			C158.56,461.216,228.32,496,304,496h192c6.464,0,12.32-3.904,14.784-9.888s1.088-12.864-3.456-17.44L467.552,428.864z"/>
	</g>
</g>
<g>
</g>
<g>
</g>
<g>
</g>
<g>
</g>
<g>
</g>
<g>
</g>
<g>
</g>
<g>
</g>
<g>
</g>
<g>
</g>
<g>
</g>
<g>
</g>
<g>
</g>
<g>
</g>
<g>
</g>
</svg>
