<?xml version="1.0" encoding="iso-8859-1"?>
<!-- Generator: Adobe Illustrator 19.0.0, SVG Export Plug-In . SVG Version: 6.00 Build 0)  -->
<svg version="1.1" id="Capa_1" xmlns="http://www.w3.org/2000/svg" xmlns:xlink="http://www.w3.org/1999/xlink" x="0px" y="0px"
	 viewBox="0 0 480 480" style="enable-background:new 0 0 480 480;" xml:space="preserve">
<g>
	<g>
		<rect x="240" y="40" width="112" height="16"/>
	</g>
</g>
<g>
	<g>
		<rect x="280" y="432" width="32" height="16"/>
	</g>
</g>
<g>
	<g>
		<rect x="200" y="104" width="32" height="16"/>
	</g>
</g>
<g>
	<g>
		<rect x="248" y="104" width="32" height="16"/>
	</g>
</g>
<g>
	<g>
		<path d="M384,0H208c-22.08,0.026-39.974,17.92-40,40v168H56v96h48v32h64v104c0.026,22.08,17.92,39.974,40,40h176
			c22.08-0.026,39.974-17.92,40-40V40C423.974,17.92,406.08,0.026,384,0z M152,264v56h-32v-32H72v-64h200c4.418,0,8,3.582,8,8
			s-3.582,8-8,8h-96C162.745,240,152,250.745,152,264z M168,320v-56c0-4.418,3.582-8,8-8h40v56c0,4.418-3.582,8-8,8H168z M408,440
			c0,13.255-10.745,24-24,24H208c-13.255,0-24-10.745-24-24v-24h224V440z M408,400H184v-64h24c13.255,0,24-10.745,24-24v-56h40
			c13.255,0,24-10.745,24-24s-10.745-24-24-24h-88V88h224V400z M408,72H184V40c0-13.255,10.745-24,24-24h176
			c13.255,0,24,10.745,24,24V72z"/>
	</g>
</g>
<g>
	<g>
		<path d="M303.584,301.472l-8-24c-1.396-4.197-5.931-6.468-10.128-5.072c-4.197,1.396-6.468,5.931-5.072,10.128l8,24
			c1.396,4.197,5.931,6.468,10.128,5.072S304.98,305.669,303.584,301.472z"/>
	</g>
</g>
<g>
	<g>
		<path d="M333.656,274.344l-16-16c-3.178-3.07-8.242-2.982-11.312,0.196c-2.995,3.1-2.995,8.016,0,11.116l16,16
			c3.178,3.07,8.242,2.982,11.312-0.196C336.651,282.36,336.651,277.444,333.656,274.344z"/>
	</g>
</g>
<g>
	<g>
		<path d="M298.512,152.4c-4.197-1.396-8.732,0.875-10.128,5.072l-8,24c-1.393,4.193,0.877,8.721,5.07,10.114
			c0.006,0.002,0.012,0.004,0.018,0.006c4.191,1.392,8.717-0.875,10.112-5.064l8-24C304.98,158.331,302.709,153.796,298.512,152.4z"
			/>
	</g>
</g>
<g>
	<g>
		<path d="M333.46,178.344c-3.1-2.994-8.015-2.994-11.116,0l-16,16c-3.124,3.125-3.123,8.19,0.002,11.314
			c1.5,1.499,3.534,2.342,5.654,2.342c2.122,0,4.156-0.844,5.656-2.344l16-16C336.726,186.478,336.638,181.414,333.46,178.344z"/>
	</g>
</g>
<g>
</g>
<g>
</g>
<g>
</g>
<g>
</g>
<g>
</g>
<g>
</g>
<g>
</g>
<g>
</g>
<g>
</g>
<g>
</g>
<g>
</g>
<g>
</g>
<g>
</g>
<g>
</g>
<g>
</g>
</svg>
